<?xml version="1.0" standalone="no"?>
<!DOCTYPE svg PUBLIC "-//W3C//DTD SVG 20010904//EN"
 "http://www.w3.org/TR/2001/REC-SVG-20010904/DTD/svg10.dtd">
<svg version="1.0" xmlns="http://www.w3.org/2000/svg"
 width="260.000000pt" height="260.000000pt" viewBox="0 0 260.000000 260.000000"
 preserveAspectRatio="xMidYMid meet">
<metadata>
Created by potrace 1.11, written by Peter Selinger 2001-2013
</metadata>
<g transform="translate(0.000000,260.000000) scale(0.100000,-0.100000)"
fill="#000000" stroke="none">
<path d="M10 1300 l0 -1300 1295 0 1295 0 0 1300 0 1300 -1295 0 -1295 0 0
-1300z m899 773 c6 -21 97 -388 204 -815 l195 -778 -112 0 -112 0 -44 185 -44
185 -201 0 -201 0 -38 -167 c-20 -93 -39 -176 -42 -185 -5 -16 -19 -18 -115
-18 -101 0 -110 2 -105 18 3 9 91 370 196 802 105 432 193 791 195 798 3 8 34
12 109 12 l105 0 10 -37z m1141 17 c57 -22 90 -50 130 -111 53 -82 74 -163 74
-284 0 -141 -36 -248 -107 -324 -25 -26 -29 -35 -17 -39 8 -2 38 -28 66 -57
189 -192 126 -673 -101 -771 -34 -15 -83 -18 -342 -22 l-303 -4 0 817 0 817
283 -4 c203 -3 292 -8 317 -18z"/>
<path d="M787 1705 c-9 -27 -127 -555 -127 -566 0 -5 61 -9 136 -9 124 0 135
1 130 18 -2 9 -32 139 -66 287 -72 320 -65 295 -73 270z"/>
<path d="M1650 1644 l0 -185 154 3 c172 3 190 10 230 78 27 46 27 160 1 215
-32 65 -64 75 -237 75 l-148 0 0 -186z"/>
<path d="M1650 970 l0 -212 173 4 c197 3 211 8 248 84 31 65 30 176 -2 241
-39 78 -64 87 -256 91 l-163 4 0 -212z"/>
</g>
</svg>
